<svg xmlns="http://www.w3.org/2000/svg" width="256" height="256" viewBox="0 0 100 100"><rect width="100" height="100" rx="20" fill="#f2c2d8"></rect><path fill="#fff" d="M47.94 59.41Q49.14 62.90 50.79 66.16Q52.44 69.43 53.90 70.29Q55.36 71.15 55.36 72.58L55.36 72.58Q55.36 75.05 51.80 76.89Q48.24 78.73 46.25 78.73Q44.26 78.73 43.29 78.01Q42.31 77.30 41.45 75.43Q40.59 73.55 39.01 67.29Q37.44 61.03 36.46 56.00L36.46 56.00L35.41 50.90Q35.04 49.10 34.17 49.10Q33.31 49.10 32.71 51.20Q32.11 53.30 32.11 54.28L32.11 54.28Q32.11 66.80 33.09 71.90L33.09 71.90Q33.24 72.35 33.24 72.95L33.24 72.95Q33.24 75.73 29.49 77.49Q25.74 79.25 23 79.25Q20.26 79.25 20.26 76.78L20.26 76.78L20.49 75.35Q22.36 61.78 22.36 46.93L22.36 46.93L21.99 35.15Q21.84 32.53 20.56 31.40L20.56 31.40Q19.29 30.20 19.29 29.00L19.29 29.00Q19.29 26.30 23.56 23.83Q27.84 21.35 30.28 21.35Q32.71 21.35 32.86 23.83L32.86 23.83Q32.04 32.08 32.04 37.85L32.04 37.85Q32.04 40.18 32.79 40.18L32.79 40.18Q33.16 40.18 33.46 39.65L33.46 39.65Q34.51 37.55 36.91 33.73Q39.31 29.90 41.08 27.46Q42.84 25.03 44.90 23.00Q46.96 20.98 48.31 20.98L48.31 20.98Q50.56 20.98 51.99 23.45Q53.41 25.93 53.41 28.25L53.41 28.25Q53.41 30.80 50.38 30.80Q47.34 30.80 43.74 36.65L43.74 36.65Q42.84 37.70 42.84 39.43Q42.84 41.15 43.17 42.54Q43.51 43.93 43.89 45.58Q44.26 47.23 45.50 51.58Q46.74 55.93 47.94 59.41ZM80.71 64.25Q80.71 71.30 77.94 74.45Q75.16 77.60 64.66 77.60L64.66 77.60Q59.86 77.60 57.42 77.08Q54.99 76.55 54.46 75.91Q53.94 75.28 53.94 74.08L53.94 74.08L54.09 72.95Q55.81 63.65 55.81 47.68L55.81 47.68L55.51 34.93Q55.36 32.23 53.79 30.05L53.79 30.05Q52.81 29.08 52.81 28.03L52.81 28.03Q52.81 25.55 57.35 23.15Q61.89 20.75 64.44 20.75Q66.99 20.75 66.99 22.85L66.99 22.85Q66.01 30.35 65.83 36.54Q65.64 42.73 65.64 50.64Q65.64 58.55 65.71 60.20Q65.79 61.85 65.83 62.00Q65.86 62.15 66.05 62.53Q66.24 62.90 66.61 63.20L66.61 63.20Q67.51 63.88 69.39 63.88L69.39 63.88Q73.51 63.88 75.99 61.03L75.99 61.03Q77.19 59.83 78.39 59.83L78.39 59.83Q80.71 59.83 80.71 64.25L80.71 64.25Z"></path></svg>